<?xml version="1.0" encoding="UTF-8" standalone="no" ?>
<!DOCTYPE svg PUBLIC "-//W3C//DTD SVG 1.1//EN" "http://www.w3.org/Graphics/SVG/1.1/DTD/svg11.dtd">
<svg xmlns="http://www.w3.org/2000/svg" xmlns:xlink="http://www.w3.org/1999/xlink" version="1.1" width="640" height="480" viewBox="0 0 640 480" xml:space="preserve">
<desc>Created with Fabric.js 3.6.3</desc>
<defs>
</defs>
<g transform="matrix(1.49 0 0 1.45 319.56 239.95)" id="path0"  >
<path style="stroke: none; stroke-width: 300; stroke-dasharray: ; stroke-linecap: butt; stroke-dashoffset: 0; stroke-linejoin: miter; stroke-miterlimit: 4; fill: rgb(255,255,255); fill-rule: evenodd; opacity: 1;" vector-effect="non-scaling-stroke"  transform=" translate(-199.96, -200.06)" d="M 112.032 64.43 C 95.631 70.019 88.822 77.29 78.132 100.635 C 74.375 108.839 69.585 118.292 67.487 121.643 L 63.672 127.734 L 63.474 125 C 62.524 111.896 63.629 112.5 40.625 112.5 C 16.832 112.5 18.75 111.16 18.75 127.786 C 18.75 144.118 17.799 142.989 34.193 146.132 C 39.463 147.142 43.682 148.244 43.568 148.58 C 43.453 148.916 37.568 153.856 30.489 159.557 C 12.7 173.884 6.589 182.124 1.995 197.978 L 0 204.862 L 0 264.175 C 0 344.267 -4.06 337.466 43.75 337.466 C 77.296 337.466 77.332 337.461 82.578 331.931 C 86.598 327.694 87.5 324.567 87.5 314.869 L 87.5 306.25 L 200 306.25 L 312.5 306.25 L 312.5 314.869 C 312.5 324.567 313.402 327.694 317.422 331.931 C 322.668 337.461 322.704 337.466 356.25 337.466 C 389.796 337.466 389.832 337.461 395.078 331.931 C 400.223 326.508 400 329.576 400 264.175 L 400 204.862 L 398.005 197.978 C 393.42 182.155 387.332 173.942 369.501 159.52 C 362.428 153.798 356.547 148.859 356.432 148.543 C 356.318 148.228 360.537 147.142 365.807 146.132 C 382.201 142.989 381.25 144.118 381.25 127.786 C 381.25 111.167 383.144 112.5 359.524 112.5 C 336.861 112.5 338.044 112.011 337.5 121.614 L 337.109 128.516 L 333.247 122.713 C 331.122 119.522 326.2 109.954 322.309 101.45 C 312.473 79.954 307.435 73.687 294.922 67.382 C 284.682 62.221 290.101 62.498 199.663 62.52 L 117.578 62.54 L 112.032 64.43 M 278.066 75.757 C 292.407 77.83 300.18 85.22 309.315 105.469 C 312.902 113.418 316.52 121.064 317.357 122.461 L 318.877 125 L 200.031 125 L 81.184 125 L 83.078 121.68 C 84.12 119.854 87.729 112.207 91.099 104.688 C 99.617 85.678 107.895 77.742 121.23 75.801 C 127.239 74.926 272.038 74.886 278.066 75.757 M 50 130.373 L 50 135.747 L 45.117 134.745 C 42.432 134.194 38.213 133.333 35.742 132.832 L 31.25 131.92 L 31.25 128.46 L 31.25 125 L 40.625 125 L 50 125 L 50 130.373 M 368.75 128.46 L 368.75 131.92 L 364.258 132.832 C 361.787 133.333 357.568 134.194 354.883 134.745 L 350 135.747 L 350 130.373 L 350 125 L 359.375 125 L 368.75 125 L 368.75 128.46 M 329.35 140.43 C 332.72 144.934 344.438 156.769 349.058 160.333 C 354.157 164.268 356.02 162.993 330.052 173.336 L 308.15 182.059 L 299.205 191.029 L 290.26 200 L 252.833 200 L 215.406 200 L 207.703 207.568 L 200 215.136 L 192.297 207.568 L 184.594 200 L 147.167 200 L 109.74 200 L 100.795 191.029 L 91.85 182.059 L 69.948 173.336 C 45.018 163.407 46.085 163.979 48.975 162.085 C 52.33 159.887 65.985 146.394 69.61 141.694 L 72.846 137.5 L 200.002 137.5 L 327.158 137.5 L 329.35 140.43 M 62.695 184.762 C 74.189 189.363 83.594 193.372 83.594 193.671 C 83.594 193.97 82.233 195.542 80.571 197.166 L 77.548 200.118 L 52.641 199.864 C 24.584 199.577 23.958 199.453 20.904 193.566 C 18.9 189.704 22.67 183.274 30.972 176.398 L 34.472 173.498 L 38.134 174.947 C 40.149 175.744 51.201 180.161 62.695 184.762 M 371.243 178.391 C 373.259 180.33 376.2 183.863 377.78 186.242 L 380.652 190.567 L 379.117 193.526 C 376.037 199.463 375.455 199.578 347.266 199.855 L 322.266 200.1 L 319.191 196.939 C 317.501 195.201 316.315 193.581 316.557 193.339 C 318.072 191.823 365.398 173.68 366.406 174.228 C 367.051 174.578 369.227 176.452 371.243 178.391 M 98.504 208.203 L 103.009 212.5 L 140.333 212.5 L 177.658 212.5 L 187.141 221.875 C 196.315 230.945 196.734 231.25 200 231.25 C 203.266 231.25 203.685 230.945 212.859 221.875 L 222.342 212.5 L 259.667 212.5 L 296.991 212.5 L 301.62 208.084 L 306.25 203.668 L 310.88 208.084 L 315.509 212.5 L 345.246 212.5 C 377.464 212.5 380.11 212.186 384.761 207.817 L 386.49 206.192 L 386.995 211.023 C 387.273 213.68 387.5 219.318 387.5 223.552 L 387.5 231.25 L 368.874 231.25 C 348.968 231.25 347.059 231.519 339.063 235.45 C 328.868 240.462 325.651 246.084 330.312 250.745 C 333.433 253.866 335.62 253.76 340.733 250.242 C 347.14 245.833 351.649 244.421 360.866 243.939 L 368.997 243.513 L 368.482 248.444 C 367.285 259.897 362.968 262.449 344.727 262.481 C 332.673 262.503 331.25 263.165 331.25 268.75 C 331.25 274.793 332.237 275.131 349.07 274.852 C 372.417 274.464 381.25 267.527 381.25 249.58 L 381.25 243.75 L 384.45 243.75 L 387.651 243.75 L 387.347 261.133 C 386.808 291.994 385.292 293.226 347.408 293.613 L 322.55 293.867 L 313.033 284.629 C 303.397 275.275 298.877 272.273 290.696 269.794 C 287.909 268.949 270.305 268.75 198.438 268.75 C 126.57 268.75 108.966 268.949 106.179 269.794 C 97.998 272.273 93.479 275.275 83.839 284.632 L 74.319 293.873 L 51.027 293.616 C 14.94 293.218 13.187 291.735 12.653 261.133 L 12.349 243.75 L 15.55 243.75 L 18.75 243.75 L 18.75 249.58 C 18.75 267.751 28.227 275 51.982 275 C 67.7 275 68.75 274.609 68.75 268.75 C 68.75 263.165 67.327 262.503 55.273 262.481 C 37.032 262.449 32.715 259.897 31.518 248.444 L 31.003 243.513 L 39.134 243.939 C 48.351 244.421 52.86 245.833 59.267 250.242 C 64.335 253.73 66.573 253.86 69.591 250.841 C 74.813 245.62 70.289 239.388 57.031 233.537 C 52.904 231.715 51.942 231.631 32.617 231.397 L 12.5 231.154 L 12.5 223.504 C 12.5 219.297 12.727 213.68 13.005 211.023 L 13.51 206.192 L 15.239 207.817 C 19.89 212.187 22.535 212.5 54.765 212.5 L 84.512 212.5 L 88.936 208.219 C 94.273 203.054 93.107 203.055 98.504 208.203 M 289.298 283.47 C 292.084 284.594 295.545 286.915 298.282 289.496 L 302.734 293.693 L 198.47 293.722 L 94.206 293.75 L 97.689 290.198 C 101.558 286.253 107.251 283.144 112.535 282.093 C 114.451 281.712 153.94 281.455 200.391 281.521 L 284.766 281.641 L 289.298 283.47 M 48.633 306.093 L 75 306.327 L 75 312.031 C 75 325.097 75.233 325 43.892 325 C 11.57 325 12.5 325.462 12.5 309.412 L 12.5 300.805 L 17.383 303.332 L 22.266 305.859 L 48.633 306.093 M 386.716 319.787 C 385.245 324.801 384.084 325 356.25 325 C 324.747 325 325 325.105 325 312.031 L 325 306.327 L 351.367 306.093 L 377.734 305.859 L 382.422 303.403 L 387.109 300.947 L 387.351 308.872 C 387.484 313.231 387.198 318.142 386.716 319.787" stroke-linecap="round" />
</g>
</svg>